# xmcd CD database file
#
# Track frame offsets:
#	150
#	24482
#	41457
#	57392
#	79667
#	90825
#	101160
#	115387
#	137835
#	152842
#	180247
#	200672
#	232820
#	245660
#
# Disc length: 3739 seconds
#
# Revision: 0
# Processed by: cddbd v1.5.2PL0 Copyright (c) Steve Scherf et al.
# Submitted via: CDex 1.70beta2
#
DISCID=af0e990e
DTITLE=Various Artist - A Blue Note Christmas
DYEAR=1990
DGENRE=Jazz
TTITLE0=Vaucing Chimes／Bobby Watson ＆ Horizon
TTITLE1=Silent Night／Stanley Jordan
TTITLE2=The Christmas Song／Lou Rawls
TTITLE3=I’ll Be Home For Christmas～Sleigh Ride／Eliane Elias
TTITLE4=Winter Wonderland／Chet Baker
TTITLE5=A Merrier Christmas／Benny Green
TTITLE6=A Merrier Christmas／Dianne Reeves
TTITLE7=O Tannenbaum／John Hart
TTITLE8=Jingle Bells／Count Basie
TTITLE9=Chipmuck Christmas／John Scofield
TTITLE10=God Rest Ye Merry Gentlemen／Joey Calderazzo
TTITLE11=Have Yourself A Merry Little Christmas／Dexter Gordon
TTITLE12=Silent Night／Benny Green
TTITLE13=Little Drummer Boy／Rick Margitza
EXTD=YEAR: 1990
EXTT0=
EXTT1=
EXTT2=
EXTT3=
EXTT4=
EXTT5=
EXTT6=
EXTT7=
EXTT8=
EXTT9=
EXTT10=
EXTT11=
EXTT12=
EXTT13=
PLAYORDER=
